<svg style="display: none;">

    <!-- DEFAULT-ICON -->
    <symbol id="default-icon" viewBox="0 0 24 24">
        <path
            d="M30,3.4141,28.5859,2,2,28.5859,3.4141,30l2-2H26a2.0027,2.0027,0,0,0,2-2V5.4141ZM26,26H7.4141l7.7929-7.793,2.3788,2.3787a2,2,0,0,0,2.8284,0L22,19l4,3.9973Zm0-5.8318-2.5858-2.5859a2,2,0,0,0-2.8284,0L19,19.1682l-2.377-2.3771L26,7.4141Z" />
        <path
            d="M6,22V19l5-4.9966,1.3733,1.3733,1.4159-1.416-1.375-1.375a2,2,0,0,0-2.8284,0L6,16.1716V6H22V4H6A2.002,2.002,0,0,0,4,6V22Z" />
    </symbol>

    <!-- SCIENCE -->
    <symbol id="science" viewBox="0 0 24 24">
        <path stroke-linecap="round" stroke-linejoin="round"
            d="M9.75 3.104v5.714a2.25 2.25 0 0 1-.659 1.591L5 14.5M9.75 3.104c-.251.023-.501.05-.75.082m.75-.082a24.301 24.301 0 0 1 4.5 0m0 0v5.714c0 .597.237 1.17.659 1.591L19.8 15.3M14.25 3.104c.251.023.501.05.75.082M19.8 15.3l-1.57.393A9.065 9.065 0 0 1 12 15a9.065 9.065 0 0 0-6.23-.693L5 14.5m14.8.8 1.402 1.402c1.232 1.232.65 3.318-1.067 3.611A48.309 48.309 0 0 1 12 21c-2.773 0-5.491-.235-8.135-.687-1.718-.293-2.3-2.379-1.067-3.61L5 14.5" />
    </symbol>

    <!-- CONFORT -->
    <symbol id="confort" viewBox="0 0 24 24">
        <path stroke-linecap="round" stroke-linejoin="round"
            d="M21 8.25c0-2.485-2.099-4.5-4.688-4.5-1.935 0-3.597 1.126-4.312 2.733-.715-1.607-2.377-2.733-4.313-2.733C5.1 3.75 3 5.765 3 8.25c0 7.22 9 12 9 12s9-4.78 9-12Z" />
    </symbol>

    <!-- ETHICAL -->
    <symbol id="ethical" viewBox="0 0 24 24">
        <path stroke-linecap="round" stroke-linejoin="round"
            d="M9.813 15.904 9 18.75l-.813-2.846a4.5 4.5 0 0 0-3.09-3.09L2.25 12l2.846-.813a4.5 4.5 0 0 0 3.09-3.09L9 5.25l.813 2.846a4.5 4.5 0 0 0 3.09 3.09L15.75 12l-2.846.813a4.5 4.5 0 0 0-3.09 3.09ZM18.259 8.715 18 9.75l-.259-1.035a3.375 3.375 0 0 0-2.455-2.456L14.25 6l1.036-.259a3.375 3.375 0 0 0 2.455-2.456L18 2.25l.259 1.035a3.375 3.375 0 0 0 2.456 2.456L21.75 6l-1.035.259a3.375 3.375 0 0 0-2.456 2.456ZM16.894 20.567 16.5 21.75l-.394-1.183a2.25 2.25 0 0 0-1.423-1.423L13.5 18.75l1.183-.394a2.25 2.25 0 0 0 1.423-1.423l.394-1.183.394 1.183a2.25 2.25 0 0 0 1.423 1.423l1.183.394-1.183.394a2.25 2.25 0 0 0-1.423 1.423Z" />
    </symbol>

    <!-- SPARKLE -->
    <symbol id="sparkle" viewBox="0 0 24 24">
        <path stroke-linecap="round" stroke-linejoin="round"
            d="M9.813 15.904 9 18.75l-.813-2.846a4.5 4.5 0 0 0-3.09-3.09L2.25 12l2.846-.813a4.5 4.5 0 0 0 3.09-3.09L9 5.25l.813 2.846a4.5 4.5 0 0 0 3.09 3.09L15.75 12l-2.846.813a4.5 4.5 0 0 0-3.09 3.09ZM18.259 8.715 18 9.75l-.259-1.035a3.375 3.375 0 0 0-2.455-2.456L14.25 6l1.036-.259a3.375 3.375 0 0 0 2.455-2.456L18 2.25l.259 1.035a3.375 3.375 0 0 0 2.456 2.456L21.75 6l-1.035.259a3.375 3.375 0 0 0-2.456 2.456ZM16.894 20.567 16.5 21.75l-.394-1.183a2.25 2.25 0 0 0-1.423-1.423L13.5 18.75l1.183-.394a2.25 2.25 0 0 0 1.423-1.423l.394-1.183.394 1.183a2.25 2.25 0 0 0 1.423 1.423l1.183.394-1.183.394a2.25 2.25 0 0 0-1.423 1.423Z" />
    </symbol>

    <!-- CLOCK -->
    <symbol id="clock" viewBox="0 0 24 24">
        <path stroke-linecap="round" stroke-linejoin="round" d="M12 6v6h4.5m4.5 0a9 9 0 1 1-18 0 9 9 0 0 1 18 0Z" />
    </symbol>

    <!-- GLOBE -->
    <symbol id="globe" viewBox="0 0 24 24">
        <path stroke-linecap="round" stroke-linejoin="round"
            d="m20.893 13.393-1.135-1.135a2.252 2.252 0 0 1-.421-.585l-1.08-2.16a.414.414 0 0 0-.663-.107.827.827 0 0 1-.812.21l-1.273-.363a.89.89 0 0 0-.738 1.595l.587.39c.59.395.674 1.23.172 1.732l-.2.2c-.212.212-.33.498-.33.796v.41c0 .409-.11.809-.32 1.158l-1.315 2.191a2.11 2.11 0 0 1-1.81 1.025 1.055 1.055 0 0 1-1.055-1.055v-1.172c0-.92-.56-1.747-1.414-2.089l-.655-.261a2.25 2.25 0 0 1-1.383-2.46l.007-.042a2.25 2.25 0 0 1 .29-.787l.09-.15a2.25 2.25 0 0 1 2.37-1.048l1.178.236a1.125 1.125 0 0 0 1.302-.795l.208-.73a1.125 1.125 0 0 0-.578-1.315l-.665-.332-.091.091a2.25 2.25 0 0 1-1.591.659h-.18c-.249 0-.487.1-.662.274a.931.931 0 0 1-1.458-1.137l1.411-2.353a2.25 2.25 0 0 0 .286-.76m11.928 9.869A9 9 0 0 0 8.965 3.525m11.928 9.868A9 9 0 1 1 8.965 3.525" />
    </symbol>

    <!-- CUBE -->
    <symbol id="cube" viewBox="0 0 24 24">
        <path stroke-linecap="round" stroke-linejoin="round"
            d="m21 7.5-9-5.25L3 7.5m18 0-9 5.25m9-5.25v9l-9 5.25M3 7.5l9 5.25M3 7.5v9l9 5.25m0-9v9" />
    </symbol>

</svg>